<svg width="20" height="21" viewBox="0 0 20 21" fill="none" xmlns="http://www.w3.org/2000/svg">
<path d="M10 20.8167C15.523 20.8167 20 16.358 20 10.8576C20 10.3965 19.306 10.3198 19.067 10.7152C18.5572 11.5561 17.862 12.2704 17.034 12.8041C16.206 13.3377 15.2669 13.6767 14.2878 13.7954C13.3088 13.9141 12.3154 13.8093 11.383 13.4891C10.4507 13.1688 9.60369 12.6414 8.90628 11.9468C8.20887 11.2523 7.67932 10.4088 7.35772 9.48018C7.03613 8.55161 6.93093 7.56233 7.0501 6.58727C7.16926 5.61221 7.50967 4.67694 8.04553 3.8523C8.58139 3.02767 9.29866 2.3353 10.143 1.82763C10.54 1.58861 10.463 0.898438 10 0.898438C4.477 0.898438 0 5.35715 0 10.8576C0 16.358 4.477 20.8167 10 20.8167Z" fill="#09C2C2"/>
</svg>
