<svg width="39" height="50" viewBox="0 0 39 50" fill="none" xmlns="http://www.w3.org/2000/svg">
<path d="M19.5 0C19.5 0 30.4688 5.21861 30.4688 26.8605C30.4688 33.2302 27.9337 41.1093 26.5687 44.7674H12.4313C11.0663 41.1093 8.53125 33.2302 8.53125 26.8605C8.53125 5.21861 19.5 0 19.5 0ZM24.375 21.7442C24.375 18.9302 22.1812 16.6279 19.5 16.6279C16.8188 16.6279 14.625 18.9302 14.625 21.7442C14.625 24.5581 16.8188 26.8605 19.5 26.8605C22.1812 26.8605 24.375 24.5581 24.375 21.7442ZM8.99438 46.0977C7.82438 42.9512 5.28937 35.4302 4.92375 28.5233L2.16937 30.4419C0.804375 31.414 0 33 0 34.714V49.8837L8.99438 46.0977ZM39 49.8837V34.714C39 33 38.1956 31.414 36.8306 30.4674L34.0762 28.5488C33.7106 35.4302 31.1512 42.9767 30.0056 46.1233L39 49.8837Z" fill="#09C2C2"/>
</svg>
