<svg width="24" height="20" viewBox="0 0 24 20" fill="none" xmlns="http://www.w3.org/2000/svg">
<path d="M24 9.67994C24 9.67994 21.4892 15.0019 11.0769 15.0019C8.01231 15.0019 4.22154 13.7719 2.46154 13.1096V6.25026C4.22154 5.58797 8.01231 4.35802 11.0769 4.35802C21.4892 4.35802 24 9.67994 24 9.67994ZM13.5385 12.0452C14.8923 12.0452 16 10.9808 16 9.67994C16 8.37902 14.8923 7.31464 13.5385 7.31464C12.1846 7.31464 11.0769 8.37902 11.0769 9.67994C11.0769 10.9808 12.1846 12.0452 13.5385 12.0452ZM1.82154 4.58272C3.33538 4.01505 6.95385 2.7851 10.2769 2.6077L9.35385 1.27131C8.88615 0.609024 8.12308 0.21875 7.29846 0.21875L0 0.21875L1.82154 4.58272ZM0 19.1411H7.29846C8.12308 19.1411 8.88615 18.7508 9.34154 18.0886L10.2646 16.7522C6.95385 16.5748 3.32308 15.333 1.80923 14.7771L0 19.1411Z" fill="white"/>
</svg>
